<?xml version="1.0" encoding="utf-8"?>
<!-- Generator: Adobe Illustrator 21.1.0, SVG Export Plug-In . SVG Version: 6.00 Build 0)  -->
<svg version="1.1" id="Layer_1" xmlns="http://www.w3.org/2000/svg" xmlns:xlink="http://www.w3.org/1999/xlink" x="0px" y="0px"
	 viewBox="0 0 89.7 89.7" style="enable-background:new 0 0 89.7 89.7;" xml:space="preserve">
<path d="M77.2,32.1c-1.6-3.9-4-7.3-6.9-10.3c-3-3-6.4-5.3-10.3-6.9c-4-1.7-8.2-2.5-12.6-2.5s-8.6,0.9-12.6,2.6
	c-3.9,1.6-7.3,4-10.3,7s-5.3,6.5-6.9,10.3c-0.7,1.6-1.2,3.9-1.6,4.9H8.9l5.7,7.9l5.7,7.9l5.7-7.8l5.7-7.9h-7.4
	c0.2-1,0.4-1.2,0.7-1.8c1.2-2.9,3-5.7,5.3-7.9c2.3-2.3,4.9-4,7.8-5.3c3-1.3,6.2-1.9,9.6-1.9c3.3,0,6.5,0.7,9.6,1.9
	c2.9,1.2,5.6,3,7.8,5.3c2.3,2.3,4,4.9,5.3,7.8c1.3,3,1.9,6.2,1.9,9.6s-0.6,6.5-1.9,9.6c-1.2,2.9-3,5.6-5.3,7.8
	c-2.3,2.3-4.9,4-7.8,5.3c-3,1.3-6.2,1.9-9.6,1.9c-3.3,0-6.5-0.6-9.6-1.9c-2.9-1.2-5.6-3-7.8-5.3l-5.5,5.5c3,3,6.4,5.3,10.3,6.9
	c4,1.7,8.2,2.5,12.6,2.5s8.2-1,12.2-2.7c3.9-1.6,7.3-4,10.3-6.9c3-3,5.3-6.4,6.9-10.3c1.7-4,2.5-8.2,2.5-12.6
	C79.7,40.3,78.9,36.1,77.2,32.1z"/>
</svg>
