<?xml version="1.0" encoding="utf-8"?>
<!-- Generator: Adobe Illustrator 21.1.0, SVG Export Plug-In . SVG Version: 6.00 Build 0)  -->
<svg version="1.1" id="Layer_1" xmlns="http://www.w3.org/2000/svg" xmlns:xlink="http://www.w3.org/1999/xlink" x="0px" y="0px"
	 viewBox="0 0 90 90" style="enable-background:new 0 0 90 90;" xml:space="preserve">
<path d="M45,10c-19.3,0-35,15.7-35,35s15.6,35,35,35c19.4,0,35-15.7,35-35S64.3,10,45,10z M69.2,31H58.9c-1.1-4.4-2.7-8.6-4.8-12.5
	C60.5,20.7,65.9,25.2,69.2,31z M45,17.1c2.9,4.2,5.2,8.9,6.7,13.9H38.3C39.8,26,42.1,21.3,45,17.1z M17.9,52c-0.6-2.2-0.9-4.6-0.9-7
	s0.4-4.8,0.9-7h11.8c-0.3,2.3-0.5,4.6-0.5,7s0.2,4.7,0.5,7H17.9z M20.8,59h10.3c1.1,4.4,2.7,8.6,4.8,12.5
	C29.5,69.3,24.1,64.8,20.8,59z M31.1,31H20.8c3.4-5.8,8.7-10.3,15.2-12.5C33.8,22.4,32.2,26.6,31.1,31z M45,72.9
	c-2.9-4.2-5.2-8.9-6.7-13.9h13.4C50.2,64,47.9,68.7,45,72.9z M53.2,52H36.8c-0.3-2.3-0.6-4.6-0.6-7s0.2-4.7,0.6-7h16.4
	c0.3,2.3,0.6,4.6,0.6,7S53.5,49.7,53.2,52z M54.1,71.5c2.1-3.9,3.7-8.1,4.8-12.5h10.3C65.9,64.8,60.5,69.3,54.1,71.5z M60.3,52
	c0.3-2.3,0.5-4.6,0.5-7s-0.2-4.7-0.5-7h11.8c0.6,2.2,0.9,4.6,0.9,7s-0.3,4.8-0.9,7H60.3z"/>
</svg>
